HIERARCHY
ROOT Hips
{
  OFFSET 43.0842 91.1655 101.099
  CHANNELS 6 Xposition Yposition Zposition Zrotation Xrotation Yrotation
  JOINT LeftUpLeg
  {
    OFFSET 8.64259 1.95398 -2.38835
    CHANNELS 3 Zrotation Xrotation Yrotation
    JOINT LeftLeg
    {
      OFFSET 43.7702 0 0
      CHANNELS 3 Zrotation Xrotation Yrotation
      JOINT LeftFoot
      {
        OFFSET 40.6238 0 0
        CHANNELS 3 Zrotation Xrotation Yrotation
        JOINT LeftToeBase
        {
          OFFSET 12.7242 0 0
          CHANNELS 3 Zrotation Xrotation Yrotation
          End Site
          {
            OFFSET 0 0 0
          }
        }
      }
    }
  }
  JOINT RightUpLeg
  {
    OFFSET -8.2249 1.95398 -2.59336
    CHANNELS 3 Zrotation Xrotation Yrotation
    JOINT RightLeg
    {
      OFFSET 43.5653 0 0
      CHANNELS 3 Zrotation Xrotation Yrotation
      JOINT RightFoot
      {
        OFFSET 40.6238 0 0
        CHANNELS 3 Zrotation Xrotation Yrotation
        JOINT RightToeBase
        {
          OFFSET 12.7242 0 0
          CHANNELS 3 Zrotation Xrotation Yrotation
          End Site
          {
            OFFSET 0 0 0
          }
        }
      }
    }
  }
  JOINT Spine
  {
    OFFSET 0.165834 0.87714 6.61349
    CHANNELS 3 Zrotation Xrotation Yrotation
    JOINT Spine1
    {
      OFFSET 7.38963 1.71661e-005 0
      CHANNELS 3 Zrotation Xrotation Yrotation
      JOINT Spine2
      {
        OFFSET 11.9445 1.14441e-005 0
        CHANNELS 3 Zrotation Xrotation Yrotation
        JOINT Spine3
        {
          OFFSET 14.7254 4.19617e-005 0
          CHANNELS 3 Zrotation Xrotation Yrotation
          JOINT Spine4
          {
            OFFSET 10.9679 0 0
            CHANNELS 3 Zrotation Xrotation Yrotation
            JOINT RightShoulder
            {
              OFFSET 2.46616 -1.6653 3.69651
              CHANNELS 3 Zrotation Xrotation Yrotation
              JOINT RightArm
              {
                OFFSET 13.0012 0 0
                CHANNELS 3 Zrotation Xrotation Yrotation
                JOINT RightForeArm
                {
                  OFFSET 28.7848 1.52588e-005 0
                  CHANNELS 3 Zrotation Xrotation Yrotation
                  JOINT RightHand
                  {
                    OFFSET 26.5688 1.52588e-005 0
                    CHANNELS 3 Zrotation Xrotation Yrotation
                    End Site
                    {
                      OFFSET 0 0 0
                    }
                  }
                }
              }
            }
            JOINT LeftShoulder
            {
              OFFSET 2.38034 -1.29275 -3.7523
              CHANNELS 3 Zrotation Xrotation Yrotation
              JOINT LeftArm
              {
                OFFSET 16.3182 6.10351e-005 0
                CHANNELS 3 Zrotation Xrotation Yrotation
                JOINT LeftForeArm
                {
                  OFFSET 27.0901 0 0
                  CHANNELS 3 Zrotation Xrotation Yrotation
                  JOINT LeftHand
                  {
                    OFFSET 24.5451 1.52588e-005 0
                    CHANNELS 3 Zrotation Xrotation Yrotation
                    End Site
                    {
                      OFFSET 0 0 0
                    }
                  }
                }
              }
            }
            JOINT Neck
            {
              OFFSET 5.0226 -0.0266342 0
              CHANNELS 3 Zrotation Xrotation Yrotation
              JOINT Head
              {
                OFFSET 6.69364 2.86102e-005 0
                CHANNELS 3 Zrotation Xrotation Yrotation
                End Site
                {
                  OFFSET 0 0 0
                }
              }
            }
          }
        }
      }
    }
  }
}
MOTION
Frames:	9
Frame Time:	0.0333333
118.567 92.5011 -50.4377 -120.699 -81.247 -118.092 -162.829 27.9435 95.5299 -35.6847 8.49945 -12.2689 58.1092 -8.46177 17.7623 30.462 -5.06164 10.893 165.764 -0.61785 84.6832 -41.8048 -4.79072 2.66314 59.7569 5.18348 -12.4957 43.5738 -5.58425 -12.4112 0.833801 6.89081 -90.0976 13.0956 1.60818 -0.392908 1.42557 1.58932 -0.463326 -21.1176 1.6519 0.108723 -1.10499 1.6519 0.108717 91.4941 -49.1862 -98.6991 18.0608 -19.9805 -65.877 -14.1132 -4.88293 -117.404 -9.5089 -1.01924 8.25574 -107.104 -57.1207 56.9881 4.69648 -6.58594 -49.9017 15.5807 -4.36941 -55.1488 12.9715 1.84476 -5.62196 -13.1245 -0.963756 6.79986 -6.04924 -1.14842 0.359157 
118.058 91.8623 -52.3201 -101.623 -73.2961 -98.8348 -163.303 32.6033 98.1403 -40.774 16.291 -9.54565 57.1929 -7.57118 12.5388 31.9956 -2.66341 10.9259 166.21 1.20592 84.2088 -39.4015 -8.41753 2.83186 63.3167 2.11254 -13.613 43.9239 -5.98826 -11.534 0.632372 7.00428 -90.1256 12.8676 1.19553 -0.394486 1.19715 1.177 -0.446727 -21.3422 1.25881 -0.0168881 -1.32951 1.25881 -0.0168911 91.8715 -48.2548 -98.3021 13.4908 -24.307 -66.0174 -12.1913 -3.58135 -116.758 -10.4099 -1.36666 7.24579 -105.134 -56.3277 59.2814 6.32609 -16.8458 -44.5925 14.2922 -3.14492 -57.234 15.4903 2.05264 -5.22035 -14.6048 1.02849 8.51922 -3.59126 0.952143 3.07015 
118.201 90.7627 -53.7968 -97.6216 -66.851 -94.9994 -169.217 32.4677 100.221 -41.2044 26.0719 -5.16838 58.2903 -4.37571 9.30612 35.084 3.00852 9.38278 167.393 2.49862 83.4041 -39.48 -8.66173 0.931459 66.7975 -2.60687 -9.11102 45.2431 -7.33363 -8.93269 0.3485 7.12545 -90.0566 12.6234 0.665346 -0.189663 0.952652 0.656355 -0.218766 -21.5839 0.691581 0.0190835 -1.57125 0.691581 0.019078 92.137 -48.3991 -97.8576 8.75313 -26.8307 -65.782 -10.338 -3.17516 -115.991 -12.1598 -1.96198 6.95527 -105.441 -56.8743 59.0882 12.9731 -22.2364 -37.2849 13.536 -5.09283 -56.7131 16.2626 2.14619 -5.53307 -16.8516 2.61059 9.33648 -1.60075 2.84997 6.07429 
118.661 89.7876 -54.5996 -96.8511 -59.9128 -93.816 -173.826 29.1122 102.215 -39.9567 29.781 -1.42906 58.4572 -3.27597 9.66642 35.7624 6.19442 5.40587 167.857 3.80953 82.5957 -39.6085 -6.14164 -0.243563 70.8598 -7.10383 -3.74273 45.3591 -7.87192 -6.38732 0.303305 7.33356 -90.1335 12.2082 0.539599 -0.328366 0.537373 0.524624 -0.351807 -21.9987 0.613337 -0.151009 -1.98602 0.613324 -0.151017 92.7163 -47.8663 -97.0468 5.53672 -27.609 -65.6792 -9.5766 -3.50288 -114.761 -12.8374 -2.19348 6.4981 -107.652 -58.2534 56.733 19.4981 -23.3435 -30.2446 13.4027 -10.0411 -53.7463 15.6839 2.14106 -6.40538 -18.9618 3.528 10.1538 0.194675 4.20983 9.22556 
119.046 88.9797 -55.3297 -96.3684 -53.2014 -92.3907 -174.246 27.7718 103.924 -40.9387 28.2701 -0.308658 58.9073 -2.89038 11.9789 34.3312 6.14438 1.68456 168.181 4.2906 83.0534 -37.1238 -4.23841 -0.116186 74.9611 -11.3817 -4.91246 43.2776 -6.87375 -5.14226 0.32858 7.50443 -90.3642 11.8669 0.482016 -0.778274 0.195831 0.447308 -0.798751 -22.3389 0.693643 -0.597435 -2.32625 0.693627 -0.597444 93.724 -46.0618 -95.768 2.95264 -28.4581 -66.2828 -6.39388 -3.94872 -113.199 -12.6956 -2.17329 5.10697 -110.7 -59.8866 53.4969 23.735 -23.3536 -23.5228 14.3765 -14.3152 -50.1535 15.9001 2.23635 -7.87464 -20.4098 4.43648 12.2599 1.37454 5.55066 11.3585 
119.435 88.106 -56.4327 -95.7638 -48.0924 -91.7908 -172.878 28.7754 104.926 -43.1663 27.6186 -0.949323 59.3723 -2.88969 14.2828 33.8357 5.36703 2.00352 169.737 6.57248 83.3189 -38.9848 -6.60581 -1.14492 76.3898 -13.3482 -7.92435 43.7442 -7.02782 -5.79926 0.228877 7.6324 -90.3992 11.6091 0.268327 -0.822938 -0.0620353 0.231852 -0.83396 -22.5958 0.503234 -0.704263 -2.58312 0.503249 -0.704264 93.7261 -47.183 -95.567 -1.00965 -29.8268 -66.8072 -5.3518 -3.37682 -112.359 -13.0199 -2.28948 4.03445 -111.999 -60.6366 52.1796 25.6546 -23.366 -18.0277 14.9179 -18.0476 -47.1898 16.1273 2.31016 -8.92258 -20.3844 5.94117 13.811 1.10322 7.17169 12.8458 
119.829 87.3062 -57.0369 -96.6787 -45.2389 -93.532 -171.493 28.4048 104.599 -44.4181 27.6431 -1.8402 60.1814 -2.07635 15.6655 33.5783 4.70095 2.63661 170.516 8.87684 82.5271 -42.9596 -7.15016 -2.80413 77.194 -14.4447 -7.36122 46.1753 -8.33711 -6.44734 0.0380154 7.8696 -90.2011 11.1351 -0.0176706 -0.396006 -0.535905 -0.035086 -0.394853 -23.0706 0.102165 -0.383011 -3.05798 0.10216 -0.383013 92.6875 -50.7438 -96.5573 -4.20484 -30.5987 -65.4678 -6.12862 -2.65069 -112.278 -12.2263 -2.06786 3.37612 -112.302 -60.8373 51.8873 25.8717 -23.816 -14.9505 15.4302 -20.8542 -45.0262 15.8468 2.31545 -9.36564 -20.339 7.21509 13.8031 1.3237 8.53679 14.0245 
120.152 86.9149 -56.9732 -97.7667 -43.9645 -94.99 -169.915 27.7897 104.334 -44.8097 27.1822 -2.8387 60.8349 -1.06109 16.2718 33.4606 4.99337 1.80812 170.088 9.194 81.386 -43.7052 -3.99991 -3.23009 78.6981 -15.7887 -4.73846 46.2041 -8.50558 -5.55891 -0.089332 8.0495 -90.1392 10.7745 -0.242143 -0.255382 -0.89648 -0.253127 -0.244489 -23.4315 -0.15418 -0.31634 -3.41888 -0.154199 -0.316355 92.3028 -51.7398 -96.9611 -3.61541 -31.2995 -62.5854 -5.35357 -2.54032 -112.382 -11.0304 -1.69781 3.69538 -114.784 -61.7605 49.2162 26.5812 -21.9189 -13.4277 17.4301 -22.9657 -41.7116 16.1379 2.34099 -9.53503 -20.9405 7.55811 13.4249 1.30747 9.01734 15.6956 
120.346 86.7538 -57.0519 -97.1225 -43.1548 -94.1743 -168.354 29.0466 105.145 -45.1176 26.8262 -3.92378 60.9599 -0.817492 15.8994 33.2714 5.1264 1.08214 170.312 10.4287 81.2912 -45.1967 -8.23322 -3.07389 77.9755 -15.4538 -6.73192 44.6716 -7.83922 -4.32473 -0.151014 8.06559 -90.2832 10.742 -0.431275 -0.523353 -0.928993 -0.453881 -0.503872 -23.4636 -0.25404 -0.628767 -3.45093 -0.254042 -0.628766 92.4461 -50.4784 -96.9765 -2.3021 -32.1848 -61.1856 -4.66368 -2.64013 -112.202 -11.8938 -1.934 4.62155 -117.66 -62.8592 46.209 27.3141 -19.1612 -12.4903 19.4422 -25.5733 -38.2722 15.6367 2.35126 -10.1749 -20.6857 8.00452 14.8682 0.990413 9.44833 15.6066 
